<?xml version="1.0" standalone="no"?><!DOCTYPE svg PUBLIC "-//W3C//DTD SVG 1.1//EN" "http://www.w3.org/Graphics/SVG/1.1/DTD/svg11.dtd"><svg t="1595832025895" class="icon" viewBox="0 0 1024 1024" version="1.1" xmlns="http://www.w3.org/2000/svg" p-id="5927" xmlns:xlink="http://www.w3.org/1999/xlink" width="200" height="200"><defs><style type="text/css"></style></defs><path d="M953.7 291.2l-67.6-156.3c-0.3-0.6-0.5-1.2-0.8-1.8-21.2-41.3-63.2-66.9-109.7-66.9H248.4c-46.5 0-88.6 25.6-109.7 66.9-0.3 0.6-0.6 1.2-0.8 1.8L70.3 291.1c-22.1 50.5-18.4 108.9 10 156.5 27.6 46.2 73.7 75.1 126.3 79.4 62.7 5.2 123.8-23.8 160.5-75.7C399.8 499 454 527.6 512 527.6s112.1-28.5 146.1-76.3c32.7 47.9 87.2 76.3 144.8 76.3 4.8 0 9.6-0.2 14.4-0.6 52.7-4.2 98.8-33.2 126.4-79.4 28.4-47.5 32.1-106 10-156.4z m-61 125.9c-17.6 29.5-46.8 47.9-80.2 50.6-41.6 3.5-81.9-15.7-105.3-49.9-11.2-16.5-29.8-26.3-49.7-26.3-20 0-38.6 9.8-49.7 26.2-21.6 31.6-57.5 50.5-95.8 50.5-38.4 0-74.2-18.9-95.8-50.3-11.2-16.5-29.8-26.3-49.7-26.3-20 0-38.6 9.8-49.7 26.3-23.4 34.3-63.8 53.4-105.4 50-33.3-2.7-62.6-21.2-80.2-50.6-18.6-31.1-21.1-69.3-6.6-102.3l67.2-155.4c11.1-20.9 32.6-33.8 56.5-33.8h527.2c23.8 0 45.4 12.9 56.5 33.8L899.2 315s0 0.1 0.1 0.1c14.5 32.8 12 71-6.6 102zM871 587.8c-16.4 0-29.7 13.3-29.7 29.7v238.9c0 26.1-21.2 47.3-47.2 47.3H229.9c-26.1 0-47.3-21.2-47.3-47.3V617.5c0-16.4-13.3-29.7-29.7-29.7s-29.7 13.3-29.7 29.7v238.9c0 58.8 47.8 106.6 106.6 106.6H794c58.8 0 106.6-47.8 106.6-106.6V617.5c0.1-16.4-13.2-29.7-29.6-29.7z" p-id="5928"></path><path d="M515.2 617.5c-16.4 0-29.7 13.3-29.7 29.7v34.4h-34.4c-16.4 0-29.7 13.3-29.7 29.7s13.3 29.7 29.7 29.7h34.4v34.4c0 16.4 13.3 29.7 29.7 29.7s29.7-13.3 29.7-29.7V741h34.4c16.4 0 29.7-13.3 29.7-29.7s-13.3-29.7-29.7-29.7h-34.4v-34.4c0-16.4-13.3-29.7-29.7-29.7z" p-id="5929"></path></svg>