<?xml version="1.0" standalone="no"?><!DOCTYPE svg PUBLIC "-//W3C//DTD SVG 1.1//EN" "http://www.w3.org/Graphics/SVG/1.1/DTD/svg11.dtd"><svg t="1595822536143" class="icon" viewBox="0 0 1024 1024" version="1.1" xmlns="http://www.w3.org/2000/svg" p-id="6098" xmlns:xlink="http://www.w3.org/1999/xlink" width="200" height="200"><defs><style type="text/css"></style></defs><path d="M512 870.4c-30.72 0-51.2-20.48-51.2-51.2V460.8c0-25.6 20.48-51.2 51.2-51.2 25.6 0 51.2 20.48 51.2 51.2v358.4c0 30.72-20.48 51.2-51.2 51.2z" p-id="6099"></path><path d="M665.6 665.6H358.4c-25.6 0-51.2-20.48-51.2-51.2 0-25.6 20.48-51.2 51.2-51.2h307.2c25.6 0 51.2 20.48 51.2 51.2s-20.48 51.2-51.2 51.2zM665.6 512H358.4c-25.6 0-51.2-20.48-51.2-51.2 0-25.6 20.48-51.2 51.2-51.2h307.2c25.6 0 51.2 20.48 51.2 51.2s-20.48 51.2-51.2 51.2z" p-id="6100"></path><path d="M552.96 471.04l-87.04-51.2 102.4-179.2c15.36-25.6 46.08-30.72 71.68-20.48 25.6 15.36 30.72 46.08 20.48 71.68l-107.52 179.2z" p-id="6101"></path><path d="M471.04 471.04l87.04-51.2-102.4-179.2c-10.24-25.6-46.08-30.72-66.56-20.48-25.6 15.36-35.84 46.08-20.48 71.68l102.4 179.2z" p-id="6102"></path><path d="M512 1024C230.4 1024 0 793.6 0 512S230.4 0 512 0s512 230.4 512 512-230.4 512-512 512z m0-921.6c-225.28 0-409.6 184.32-409.6 409.6s184.32 409.6 409.6 409.6 409.6-184.32 409.6-409.6-184.32-409.6-409.6-409.6z" p-id="6103"></path></svg>