<?xml version="1.0" standalone="no"?><!DOCTYPE svg PUBLIC "-//W3C//DTD SVG 1.1//EN" "http://www.w3.org/Graphics/SVG/1.1/DTD/svg11.dtd"><svg t="1595821940539" class="icon" viewBox="0 0 1072 1024" version="1.1" xmlns="http://www.w3.org/2000/svg" p-id="1016" xmlns:xlink="http://www.w3.org/1999/xlink" width="209.375" height="200"><defs><style type="text/css"></style></defs><path d="M67.437714 919.064381a43.056762 43.056762 0 1 0 0 86.113524h937.886476a43.056762 43.056762 0 0 0 43.056762-43.056762V91.477333a43.056762 43.056762 0 1 0-86.113523 0v827.587048H67.437714z" p-id="1017"></path><path d="M122.587429 666.087619v129.170286H187.245714v-129.219048H122.587429z m0-86.113524H187.245714c47.542857 0 86.113524 38.521905 86.113524 86.113524v129.170286c0 47.542857-38.521905 86.113524-86.113524 86.113524H122.587429c-47.542857 0-86.113524-38.521905-86.113524-86.113524v-129.219048c0-47.542857 38.570667-86.064762 86.113524-86.064762zM437.49181 559.786667v235.471238h64.560761v-235.52H437.49181z m0-86.113524h64.560761c47.591619 0 86.113524 38.521905 86.113524 86.113524v235.471238c0 47.542857-38.521905 86.113524-86.113524 86.113524H437.49181c-47.591619 0-86.113524-38.521905-86.113524-86.113524v-235.52c0-47.542857 38.521905-86.064762 86.113524-86.064762zM752.347429 395.605333v399.652572h64.609523V395.605333h-64.609523z m0-86.113523h64.609523c47.542857 0 86.113524 38.521905 86.113524 86.113523v399.652572c0 47.542857-38.570667 86.113524-86.113524 86.113524h-64.609523c-47.542857 0-86.113524-38.521905-86.113524-86.113524V395.605333c0-47.542857 38.521905-86.113524 86.113524-86.113523zM97.133714 525.263238a1410.681905 1410.681905 0 0 0 752.542476-451.291428A43.056762 43.056762 0 0 0 784.676571 17.554286a1324.617143 1324.617143 0 0 1-706.56 423.740952 43.056762 43.056762 0 1 0 19.017143 84.016762z" p-id="1018"></path><path d="M563.931429 163.254857a355.328 355.328 0 0 0 276.382476-86.991238 43.056762 43.056762 0 0 0-57.051429-64.560762 269.214476 269.214476 0 0 1-209.67619 65.974857 43.056762 43.056762 0 0 0-9.654857 85.577143z" p-id="1019"></path></svg>