<?xml version="1.0" standalone="no"?><!DOCTYPE svg PUBLIC "-//W3C//DTD SVG 1.1//EN" "http://www.w3.org/Graphics/SVG/1.1/DTD/svg11.dtd"><svg t="1595831267808" class="icon" viewBox="0 0 1181 1024" version="1.1" xmlns="http://www.w3.org/2000/svg" p-id="14202" xmlns:xlink="http://www.w3.org/1999/xlink" width="230.6640625" height="200"><defs><style type="text/css"></style></defs><path d="M1024 610.461538v354.461539c0 23.630769 15.753846 39.384615 39.384615 39.384615s39.384615-15.753846 39.384616-39.384615v-354.461539c0-23.630769-15.753846-39.384615-39.384616-39.384615s-39.384615 15.753846-39.384615 39.384615z m-236.307692-118.153846v472.615385c0 23.630769 15.753846 39.384615 39.384615 39.384615s39.384615-15.753846 39.384615-39.384615v-472.615385c0-23.630769-15.753846-39.384615-39.384615-39.384615s-39.384615 15.753846-39.384615 39.384615z m-236.307693 118.153846v354.461539c0 23.630769 15.753846 39.384615 39.384616 39.384615s39.384615-15.753846 39.384615-39.384615v-354.461539c0-23.630769-15.753846-39.384615-39.384615-39.384615s-39.384615 15.753846-39.384616 39.384615z m-236.307692 0v354.461539c0 23.630769 15.753846 39.384615 39.384615 39.384615s39.384615-15.753846 39.384616-39.384615v-354.461539c0-23.630769-15.753846-39.384615-39.384616-39.384615s-39.384615 15.753846-39.384615 39.384615z m-236.307692-236.307692v590.769231c0 23.630769 15.753846 39.384615 39.384615 39.384615s39.384615-15.753846 39.384616-39.384615v-590.769231c0-23.630769-15.753846-39.384615-39.384616-39.384615s-39.384615 15.753846-39.384615 39.384615zM429.292308 429.292308L70.892308 70.892308 126.030769 15.753846l311.138462 307.2 389.907692-315.076923 283.569231 279.630769-55.138462 55.138462-236.307692-232.369231z" fill="" p-id="14203"></path><path d="M1130.338462 236.307692l-129.969231 118.153846 137.846154 51.2z" fill="" p-id="14204"></path></svg>