<?xml version="1.0" standalone="no"?><!DOCTYPE svg PUBLIC "-//W3C//DTD SVG 1.1//EN" "http://www.w3.org/Graphics/SVG/1.1/DTD/svg11.dtd"><svg t="1595831342647" class="icon" viewBox="0 0 1024 1024" version="1.1" xmlns="http://www.w3.org/2000/svg" p-id="14338" xmlns:xlink="http://www.w3.org/1999/xlink" width="200" height="200"><defs><style type="text/css"></style></defs><path d="M997.184 353.536l-70.72 26.816c12.16 41.408 19.52 85.312 19.52 131.648 0 241.344-195.072 433.984-436.48 433.984-241.28 0-431.488-192.64-431.488-433.984S273.088 75.584 512 75.584c24.384 0 48.768 2.432 73.152 7.296l12.16-75.52A511.936 511.936 0 0 0 0 512c0 282.752 229.184 511.936 512 511.936 282.88 0 512-229.12 512-512 0-56.064-9.728-109.696-26.816-158.464zM363.264 231.616l-56.064 56.064L455.936 436.48H334.016V512h129.28v75.584h-129.28V665.6h129.28v129.28h102.4V665.6h129.152V587.584H565.632V512h129.28V433.984H572.864l148.736-148.736-56.064-56.064L512 377.92 363.264 231.616z m380.352-53.632h231.68c14.592 0 24.32-12.16 24.32-24.384v-24.384a24.448 24.448 0 0 0-24.32-24.32h-231.68a24.448 24.448 0 0 0-24.32 24.32V153.6c-2.496 14.656 9.664 24.384 24.32 24.384z" p-id="14339"></path></svg>