<?xml version="1.0" standalone="no"?><!DOCTYPE svg PUBLIC "-//W3C//DTD SVG 1.1//EN" "http://www.w3.org/Graphics/SVG/1.1/DTD/svg11.dtd"><svg t="1596167357923" class="icon" viewBox="0 0 1024 1024" version="1.1" xmlns="http://www.w3.org/2000/svg" p-id="15702" width="220" height="220" xmlns:xlink="http://www.w3.org/1999/xlink"><defs><style type="text/css"></style></defs><path d="M159.999 136.169l704.003 0c26.498 0 47.998-21.477 47.998-48.001 0-26.532-21.5-48.002-47.998-48.002L159.999 40.166c-26.524 0-48 21.47-48 48.002C111.999 114.692 133.474 136.169 159.999 136.169L159.999 136.169zM934.019 184.163 90.016 184.163 0 424.165c0 70.687 57.311 127.996 127.998 127.996s127.997-57.311 127.997-127.996c0 70.687 57.317 127.996 128.005 127.996 70.687 0 128.002-57.311 128.002-127.996 0 70.687 57.311 127.996 127.992 127.996 70.696 0 128.012-57.311 128.012-127.996 0 70.687 57.303 127.996 127.997 127.996 70.68 0 127.997-57.311 127.997-127.996L934.019 184.163 934.019 184.163zM341.57 843.51c-2.573-3.605-5.115-7.408-7.563-11.341l-0.573-0.871c-1.515-2.29-2.861-4.619-4.071-6.995-0.013-0.036-0.035-0.066-0.058-0.109L192.037 824.194 192.037 588.004c-8.171 3.199-16.674 5.662-25.381 7.646-2.049 0.485-4.063 1.028-6.105 1.443-0.963 0.192-1.964 0.283-2.918 0.446-4.477 0.742-8.997 1.443-13.597 1.854l0 0.036c-5.281 0.48-10.598 0.767-16 0.767-10.945 0-21.599-1.121-32.001-3.041l0 323.047c0 26.482 21.477 47.999 48.001 47.999l280.55 0L341.57 843.51zM896.027 600.198c-5.396 0-10.713-0.287-15.994-0.767l-0.036-0.036 0.007 0 0-0.036c-4.579-0.411-9.119-1.115-13.602-1.854-0.957-0.15-1.949-0.26-2.912-0.41-2.079-0.387-4.092-0.958-6.143-1.442-8.644-1.985-17.189-4.447-25.316-7.615l0 236.157L694.783 824.195c-1.143 2.28-2.424 4.511-3.823 6.671l-1.188 1.788c-2.087 3.347-4.311 6.678-6.621 9.938l-83.617 125.611 280.5 0c26.503 0 48.001-21.516 48.001-47.999L928.035 597.158C917.67 599.04 906.971 600.198 896.027 600.198zM649.875 663.767c-7.546-17.818-18.343-33.802-32.057-47.544-13.75-13.732-29.736-24.525-47.556-32.058-18.441-7.796-38.033-11.759-58.229-11.759-20.195 0-39.787 3.963-58.229 11.759-17.819 7.532-33.803 18.325-47.538 32.058-13.748 13.742-24.541 29.726-32.074 47.544-7.793 18.449-11.75 38.042-11.75 58.229 0 16.901 2.797 33.473 8.316 49.287 3.071 8.82 6.947 17.266 11.589 25.331 0.232 0.563 0.523 1.129 0.871 1.655l1.1 1.667c2.014 3.267 4.136 6.476 6.395 9.581l113.411 170.332c1.709 2.593 4.564 3.985 7.454 3.985 0.165 0 0.309 0 0.484 0 0.153 0 0.305 0 0.465 0 2.904 0 5.743-1.393 7.468-3.985l113.931-171.121c1.956-2.738 3.81-5.52 5.564-8.353l1.396-2.107c0.375-0.571 0.688-1.166 0.919-1.766 13.009-22.558 19.817-47.976 19.817-74.508C661.623 701.809 657.669 682.217 649.875 663.767zM511.825 805.845c-44.497 0-80.569-36.085-80.569-80.579 0-44.498 36.072-80.584 80.569-80.584 44.511 0 80.59 36.086 80.59 80.584C592.415 769.76 556.335 805.845 511.825 805.845z" p-id="15703"></path></svg>