<?xml version="1.0" standalone="no"?><!DOCTYPE svg PUBLIC "-//W3C//DTD SVG 1.1//EN" "http://www.w3.org/Graphics/SVG/1.1/DTD/svg11.dtd"><svg t="1596167465555" class="icon" viewBox="0 0 1024 1024" version="1.1" xmlns="http://www.w3.org/2000/svg" p-id="19266" width="300" height="300" xmlns:xlink="http://www.w3.org/1999/xlink"><defs><style type="text/css"></style></defs><path d="M893.3 817.4H857V385.9c0-39.5-32.7-71.9-72.7-71.9H638.9v503.4h-36.4V206.1c0-39.5-32.7-71.9-72.7-71.9H239.1c-40 0-72.7 32.4-72.7 71.9v611.3h-36.3c-10.9 0-18.2 7.2-18.2 18v36c0 10.8 7.2 18 18.2 18h763.2c10.9 0 18.2-7.2 18.2-18v-36c0-10.8-7.3-18-18.2-18zM348.2 655.6c0 10.8-7.3 18-18.2 18h-72.7c-10.9 0-18.2-7.2-18.2-18v-36c0-10.8 7.3-18 18.2-18H330c10.9 0 18.2 7.2 18.2 18v36z m0-143.8c0 10.8-7.3 18-18.2 18h-72.7c-10.9 0-18.2-7.2-18.2-18v-36c0-10.8 7.3-18 18.2-18H330c10.9 0 18.2 7.2 18.2 18v36z m0-143.9c0 10.8-7.3 18-18.2 18h-72.7c-10.9 0-18.2-7.2-18.2-18v-36c0-10.8 7.3-18 18.2-18H330c10.9 0 18.2 7.2 18.2 18v36z m181.7 287.7c0 10.8-7.3 18-18.2 18H439c-10.9 0-18.2-7.2-18.2-18v-36c0-10.8 7.3-18 18.2-18h72.7c10.9 0 18.2 7.2 18.2 18v36z m0-143.8c0 10.8-7.3 18-18.2 18H439c-10.9 0-18.2-7.2-18.2-18v-36c0-10.8 7.3-18 18.2-18h72.7c10.9 0 18.2 7.2 18.2 18v36z m0-143.9c0 10.8-7.3 18-18.2 18H439c-10.9 0-18.2-7.2-18.2-18v-36c0-10.8 7.3-18 18.2-18h72.7c10.9 0 18.2 7.2 18.2 18v36z m272.6 287.7c0 10.8-7.3 18-18.2 18h-72.7c-10.9 0-18.2-7.2-18.2-18v-36c0-10.8 7.3-18 18.2-18h72.7c10.9 0 18.2 7.2 18.2 18v36z m0-143.8c0 10.8-7.3 18-18.2 18h-72.7c-10.9 0-18.2-7.2-18.2-18v-36c0-10.8 7.3-18 18.2-18h72.7c10.9 0 18.2 7.2 18.2 18v36z m0 0" p-id="19267"></path></svg>