<?xml version="1.0" standalone="no"?><!DOCTYPE svg PUBLIC "-//W3C//DTD SVG 1.1//EN" "http://www.w3.org/Graphics/SVG/1.1/DTD/svg11.dtd"><svg t="1596175374499" class="icon" viewBox="0 0 1024 1024" version="1.1" xmlns="http://www.w3.org/2000/svg" p-id="36830" xmlns:xlink="http://www.w3.org/1999/xlink" width="250" height="250"><defs><style type="text/css"></style></defs><path d="M414.910431 462.098845 83.623862 793.545409c12.863634 19.423447 27.679212 37.91892 43.454763 55.83841l337.494392-337.526391L414.910431 462.098845z" p-id="36831"></path><path d="M221.283943 268.536355l-220.729716 220.793714c-1.439959 31.519103 0.127996 63.198201 4.511872 94.653305L270.882531 318.070945 221.283943 268.536355z" p-id="36832"></path><path d="M896.528719 174.299038 174.30928 896.582475c201.210272 176.890964 507.697546 169.755167 699.916074-22.367363C1066.315886 682.060583 1073.483682 375.573308 896.528719 174.299038z" p-id="36833"></path><path d="M849.298064 127.100382c-192.82651-169.467175-482.162273-169.467175-675.084781 0l337.55839 337.590389L849.298064 127.100382z" p-id="36834"></path><path d="M127.110624 174.299038c-53.05449 60.41428-89.597449 130.012299-109.532882 203.482207l156.603542-156.507544L127.110624 174.299038z" p-id="36835"></path><path d="M318.081187 365.269601l-296.247566 296.279565c7.423789 24.319308 17.023515 48.062632 28.159198 71.29397l317.686956-317.782953L318.081187 365.269601z" p-id="36836"></path></svg>