<?xml version="1.0" standalone="no"?><!DOCTYPE svg PUBLIC "-//W3C//DTD SVG 1.1//EN" "http://www.w3.org/Graphics/SVG/1.1/DTD/svg11.dtd"><svg t="1596167712529" class="icon" viewBox="0 0 1024 1024" version="1.1" xmlns="http://www.w3.org/2000/svg" p-id="20090" width="250" height="250" xmlns:xlink="http://www.w3.org/1999/xlink"><defs><style type="text/css"></style></defs><path d="M201.1 458.6h-62.5v262.5c0 22.5 25 50 47.5 50h315v-62.5h-300v-250z m517.4-141.2c0 58.7 48.7 107.5 110 107.5 60 0 110-47.5 110-107.5L861 121.1H138.6l-75 196.2c0 58.7 48.7 107.5 108.7 107.5s110-47.5 110-107.5c0 58.7 48.7 107.5 108.7 107.5s110-47.5 110-107.5c0 58.7 48.7 107.5 108.7 107.5 60.1 0.1 108.8-47.4 108.8-107.4zM81.7 865.1c0 21.3 16.2 37.5 37.5 37.5H501v-75H119.2c-21.2 0-37.5 16.3-37.5 37.5z m0 0" p-id="20091"></path><path d="M738.2 652c0 18.8-15.4 34.2-34.2 34.2H582.6c-18.8 0-34.2-15.4-34.2-34.2V525.4c0-18.8 15.4-34.2 34.2-34.2H704c18.8 0 34.2 15.4 34.2 34.2V652z m0 0M738.2 868.7c0 18.8-15.4 34.2-34.2 34.2H582.6c-18.8 0-34.2-15.4-34.2-34.2V742.1c0-18.8 15.4-34.2 34.2-34.2H704c18.8 0 34.2 15.4 34.2 34.2v126.6z m0 0" p-id="20092"></path><path d="M960 652c0 18.8-15.4 34.2-34.2 34.2H804.5c-18.8 0-34.2-15.4-34.2-34.2V525.4c0-18.8 15.4-34.2 34.2-34.2h121.4c18.8 0 34.2 15.4 34.2 34.2V652z m0 0M960 868.7c0 18.8-15.4 34.2-34.2 34.2H804.5c-18.8 0-34.2-15.4-34.2-34.2V742.1c0-18.8 15.4-34.2 34.2-34.2h121.4c18.8 0 34.2 15.4 34.2 34.2v126.6z m0 0" p-id="20093"></path></svg>