<?xml version="1.0" standalone="no"?><!DOCTYPE svg PUBLIC "-//W3C//DTD SVG 1.1//EN" "http://www.w3.org/Graphics/SVG/1.1/DTD/svg11.dtd"><svg t="1595832366945" class="icon" viewBox="0 0 1024 1024" version="1.1" xmlns="http://www.w3.org/2000/svg" p-id="7212" xmlns:xlink="http://www.w3.org/1999/xlink" width="200" height="200"><defs><style type="text/css"></style></defs><path d="M990.72 356.864c-0.512-2.56-1.024-5.12-2.048-7.168l-82.432-201.216c-14.336-41.984-55.296-67.584-103.424-67.584h-579.072c-48.64 0-86.528 25.6-100.352 65.536l-88.576 205.312c-0.512 1.536-1.024 3.072-1.024 4.608-6.144 18.944-9.728 38.912-9.728 59.392 0 70.144 39.424 134.144 102.4 167.424 26.112 13.824 56.832 20.48 91.136 20.48 57.856 0 111.104-25.088 147.968-67.584 36.352 41.984 89.6 67.072 146.944 67.072 57.344-0.512 110.08-25.088 146.432-67.584 36.352 42.496 90.112 67.584 147.968 67.584 35.328 0 66.56-7.168 92.672-21.504 62.464-33.28 100.864-97.28 100.864-166.912-0.512-19.456-3.584-39.424-9.728-57.856z m-124.928 164.352c-15.872 8.704-35.84 12.8-58.88 13.312-43.008 0-81.92-21.504-104.96-57.344-2.56-5.12-5.632-10.24-9.216-14.336-5.632-6.144-16.384-13.824-33.792-13.824-13.824 0-26.624 5.632-33.792 14.336-4.608 5.12-7.168 10.24-9.216 14.336-22.528 35.84-61.44 57.344-103.424 57.344-42.496 0-81.408-22.016-103.936-57.856-1.536-3.072-4.096-8.704-8.192-12.8-16.384-19.456-53.76-18.432-68.096-1.536-4.096 4.608-7.68 9.728-9.728 15.36-22.528 35.84-61.952 57.344-104.448 57.344-22.528 0-41.984-4.096-57.856-12.288-40.448-20.992-65.536-61.952-65.536-106.496 0-13.312 2.048-26.624 6.656-39.424 0.512-1.024 0.512-2.048 1.024-3.072l87.552-202.24c1.536-5.12 7.168-20.992 34.304-20.992h579.072c11.264 0.512 30.208 2.56 37.376 22.528l81.92 199.68c0.512 1.536 0.512 3.072 1.024 4.096 4.608 12.8 6.656 26.112 6.656 39.424-0.512 42.496-25.088 82.944-64.512 104.448z m26.112 110.592c-19.456 0-35.328 15.36-35.328 34.304v188.416c0 10.752-9.216 19.456-19.968 19.456l-662.016 0.512c-10.752 0-19.968-8.704-19.968-19.456v-184.832c0-18.944-15.872-34.304-35.328-34.304-19.456 0-35.328 15.36-35.328 34.816l0.512 184.832c0 48.64 40.448 88.064 90.112 88.064l662.528-0.512c49.664 0 90.112-39.936 90.112-88.576v-188.416c0-18.944-15.872-34.304-35.328-34.304z m-104.448-241.664h-563.2c-19.456 0-35.328-15.36-35.328-34.304s15.872-34.304 35.328-34.304h563.2c19.456 0 35.328 15.36 35.328 34.304s-15.872 34.304-35.328 34.304z" p-id="7213"></path></svg>