<?xml version="1.0" standalone="no"?><!DOCTYPE svg PUBLIC "-//W3C//DTD SVG 1.1//EN" "http://www.w3.org/Graphics/SVG/1.1/DTD/svg11.dtd"><svg t="1596168177300" class="icon" viewBox="0 0 1024 1024" version="1.1" xmlns="http://www.w3.org/2000/svg" p-id="31282" xmlns:xlink="http://www.w3.org/1999/xlink" width="250" height="250"><defs><style type="text/css"></style></defs><path d="M791.087117 80.883436c0-24.814724-20.731288-44.760736-46.331289-44.760737s-46.331288 20.103067-46.331288 44.760737v89.678527c0 24.814724 20.731288 44.917791 46.331288 44.917792s46.331288-20.103067 46.331289-44.917792V80.883436z m0 0M559.27362 80.883436c0-24.814724-20.731288-44.760736-46.331289-44.760737S466.453988 56.225767 466.453988 80.883436v89.678527c0 24.814724 20.731288 44.917791 46.331288 44.917792s46.331288-20.103067 46.331288-44.917792V80.883436z m0 0M327.303067 80.883436c0-24.814724-20.731288-44.760736-46.331288-44.760737s-46.331288 20.103067-46.331288 44.760737v89.678527c0 24.814724 20.731288 44.917791 46.331288 44.917792s46.331288-20.103067 46.331288-44.917792V80.883436z m0 0" fill="" p-id="31283"></path><path d="M914.846626 125.801227h-77.271166v44.760736c0 49.472393-41.619632 89.678528-92.819632 89.678528s-92.819632-40.206135-92.819632-89.678528V125.801227h-46.331288v44.760736c0 49.472393-41.462577 89.678528-92.819632 89.678528s-92.819632-40.206135-92.819632-89.678528V125.801227h-46.331288v44.760736c0 49.472393-41.462577 89.678528-92.819632 89.678528-51.2 0-92.819632-40.206135-92.819632-89.678528V125.801227H110.880982C85.123926 125.801227 64.392638 145.904294 64.392638 170.561963v777.109203c0 24.814724 20.731288 44.760736 46.331288 44.760736h803.965645c25.6 0 46.331288-20.103067 46.331288-44.760736V170.561963c0.157055-24.657669-20.574233-44.760736-46.174233-44.760736zM319.764417 849.354601c0 21.045399-17.276074 38.007362-38.635583 38.007362-21.359509 0-38.635583-16.961963-38.635582-38.007362v-101.300613c0-21.045399 17.276074-38.007362 38.635582-38.007362 21.359509 0 38.635583 16.961963 38.635583 38.007362v101.300613z m154.699387 0c0 21.045399-17.276074 38.007362-38.635583 38.007362-21.359509 0-38.635583-16.961963-38.635583-38.007362v-202.601227c0-21.045399 17.276074-38.007362 38.635583-38.007362 21.359509 0 38.635583 16.961963 38.635583 38.007362v202.601227z m154.699386 0c0 21.045399-17.276074 38.007362-38.635583 38.007362-21.359509 0-38.635583-16.961963-38.635582-38.007362V545.295706c0-21.045399 17.276074-38.007362 38.635582-38.007362 21.359509 0 38.635583 16.961963 38.635583 38.007362v304.058895z m154.699387 0c0 21.045399-17.276074 38.007362-38.635583 38.007362-21.359509 0-38.635583-16.961963-38.635583-38.007362V443.995092c0-21.045399 17.276074-38.007362 38.635583-38.007362 21.359509 0 38.635583 16.961963 38.635583 38.007362v405.359509z m0 0" fill="" p-id="31284"></path></svg>