<?xml version="1.0" standalone="no"?><!DOCTYPE svg PUBLIC "-//W3C//DTD SVG 1.1//EN" "http://www.w3.org/Graphics/SVG/1.1/DTD/svg11.dtd"><svg t="1596175292952" class="icon" viewBox="0 0 1024 1024" version="1.1" xmlns="http://www.w3.org/2000/svg" p-id="36259" xmlns:xlink="http://www.w3.org/1999/xlink" width="250" height="250"><defs><style type="text/css"></style></defs><path d="M672.822857 92.013714c0-15.744-12.891429-28.617143-28.653714-28.617143l-36.297143 0c0-17.664-6.198857-32.749714-18.578286-44.964571C576.896 6.180571 561.792 0 543.780571 0l-64.969143 0c-17.974857 0-33.097143 6.180571-45.458286 18.413714-12.397714 12.214857-18.596571 27.318857-18.596571 44.964571l-36.461714 0c-15.762286 0-28.672 12.873143-28.672 28.617143L349.622857 162.56c0 15.744 12.909714 28.617143 28.672 28.617143l265.856 0c15.762286 0 28.653714-12.873143 28.653714-28.617143L672.804571 92.013714zM540.178286 122.075429c-7.881143 7.844571-17.371429 11.776-28.416 11.776-11.648 0-21.302857-3.913143-28.873143-11.776-7.552-7.862857-11.337143-17.188571-11.337143-28.068571 0-11.611429 3.785143-21.12 11.337143-28.653714 7.570286-7.387429 17.225143-11.154286 28.873143-11.154286 11.044571 0 20.534857 3.785143 28.416 11.154286 8.009143 7.533714 11.922286 17.060571 11.922286 28.653714C552.100571 104.868571 548.187429 114.212571 540.178286 122.075429zM484.626286 543.396571c0-13.897143 12.909714-25.252571 28.653714-25.252571l126.006857 0c15.780571 0 28.672 11.355429 28.672 25.252571 0 13.878857-12.891429 25.234286-28.672 25.234286L513.28 568.630857C497.536 568.630857 484.626286 557.275429 484.626286 543.396571zM530.468571 644.352c9.837714-9.654857 28.781714-10.642286 42.075429-2.194286l51.821714 32.932571c2.998857-1.462857 6.710857-4.388571 11.172571-8.758857 31.323429-20.498286 55.149714-37.321143 71.533714-50.486857l-206.08 0c-15.762286 0-28.672 12.873143-28.672 28.617143l0 92.068571c16.402286-5.833143 41.746286-13.897143 76.032-24.137143 11.904-4.388571 20.864-7.296 26.825143-8.758857l-38.747429-25.819429C523.318857 669.074286 520.649143 654.025143 530.468571 644.352zM484.626286 451.218286c0-13.897143 12.909714-25.252571 28.653714-25.252571l126.006857 0c15.780571 0 28.672 11.355429 28.672 25.252571 0 13.860571-12.891429 25.216-28.672 25.216L513.28 476.434286C497.536 476.434286 484.626286 465.078857 484.626286 451.218286zM765.568 130.998857c-15.780571 0-28.672 12.891429-28.672 28.617143l0 67.2c0 15.725714-12.891429 28.617143-28.653714 28.617143L314.404571 255.433143c-15.762286 0-28.672-12.891429-28.672-28.617143L285.732571 159.616c0-15.744-12.891429-28.617143-28.653714-28.617143l-118.491429 0c-15.762286 0-28.672 12.873143-28.672 28.617143L109.714286 995.401143C109.714286 1011.126857 122.605714 1024 138.368 1024l746.934857-0.292571c15.762286 0 28.653714-12.891429 28.653714-28.617143L914.285714 159.616c0-15.744-12.891429-28.617143-28.653714-28.617143L765.568 130.998857zM416.438857 718.976 416.438857 411.812571c0-15.744 12.909714-28.617143 28.672-28.617143l235.538286 0c15.762286 0 28.653714 12.873143 28.653714 28.617143l0 175.414857c0 15.744 1.499429 27.136 3.364571 25.325714 1.846857-1.828571 11.392 4.608 21.229714 14.244571 9.837714 9.654857 7.094857 24.630857-6.089143 33.243429l-63.213714 41.398857c10.422857 5.851429 25.325714 14.646857 44.708571 26.313143 14.902857 10.258286 26.825143 18.304 35.766857 24.137143l-40.228571 41.709714c-5.979429-4.388571-13.421714-9.526857-22.4-15.36-47.670857-33.664-83.437714-58.532571-107.282286-74.642286 0 5.851429 0.749714 14.646857 2.230857 26.349714 0 11.721143 0.731429 20.461714 2.230857 26.313143-16.384 4.388571-38.747429 11.008-67.053714 19.748571-19.382857 5.851429-34.285714 10.258286-44.726857 13.184-1.499429 1.462857-4.461714 2.925714-8.941714 4.388571-5.942857 1.462857-15.652571 5.12-29.056 10.989714l-29.056-39.515429C411.245714 753.353143 416.438857 737.993143 416.438857 718.976zM295.716571 365.622857c25.344 33.645714 49.938286 68.022857 73.782857 103.168l-53.668571 28.507429c-11.922286-20.461714-31.286857-50.468571-58.112-89.965714-4.48-7.314286-8.210286-12.452571-11.172571-15.36L295.716571 365.622857zM756.260571 846.281143c-2.980571 11.684571-5.979429 20.461714-8.941714 26.313143l-181.065143 0c-44.745143 0-81.243429-0.713143-109.568-2.176-65.572571-2.925714-112.530286-22.674286-140.854857-59.245714-13.403429 10.258286-32.036571 29.257143-55.881143 57.051429-4.48 5.851429-8.210286 10.24-11.172571 13.165714l-26.825143-59.245714c5.942857-5.851429 16.384-15.378286 31.286857-28.544s25.325714-22.674286 31.286857-28.544l0-133.778286c0-15.725714-12.909714-28.598857-28.653714-28.598857L255.085714 602.678857c-15.762286 0-28.653714-12.854857-28.653714-28.544 0-15.707429 12.891429-28.562286 28.653714-28.562286l58.916571 0c15.762286 0 28.653714 12.873143 28.653714 28.617143L342.656 760.685714c26.843429 40.96 69.321143 60.745143 127.433143 59.264 92.397714 1.481143 190.793143 1.481143 295.113143 0C763.721143 824.338286 760.740571 833.115429 756.260571 846.281143z" p-id="36260"></path></svg>