<?xml version="1.0" standalone="no"?><!DOCTYPE svg PUBLIC "-//W3C//DTD SVG 1.1//EN" "http://www.w3.org/Graphics/SVG/1.1/DTD/svg11.dtd"><svg t="1595822641457" class="icon" viewBox="0 0 1024 1024" version="1.1" xmlns="http://www.w3.org/2000/svg" p-id="6701" xmlns:xlink="http://www.w3.org/1999/xlink" width="200" height="200"><defs><style type="text/css"></style></defs><path d="M704 384H189.867c-17.067 0-32-14.933-32-32s14.933-32 32-32H704c17.067 0 32 14.933 32 32s-14.933 32-32 32zM578.133 544H192c-17.067 0-32-14.933-32-32s14.933-32 32-32h386.133c17.067 0 32 14.933 32 32s-14.933 32-32 32zM448 704H192c-17.067 0-32-14.933-32-32s14.933-32 32-32h256c17.067 0 32 14.933 32 32 0 19.2-14.933 32-32 32z" p-id="6702"></path><path d="M416 925.867H113.067c-12.8 0-21.334-10.667-21.334-21.334V119.467c0-14.934 10.667-25.6 25.6-25.6H806.4c12.8 0 25.6 10.666 25.6 25.6V448c0 19.2 17.067 34.133 36.267 32 17.066-2.133 29.866-14.933 29.866-32V64c0-21.333-17.066-38.4-38.4-38.4H64c-21.333 0-38.4 17.067-38.4 38.4v889.6c0 21.333 17.067 38.4 38.4 38.4h352c19.2 0 34.133-14.933 34.133-34.133 0-17.067-14.933-32-34.133-32z m390.4-320L576 836.267l-12.8 157.866 157.867-12.8 230.4-230.4C992 710.4 992 646.4 951.467 605.867c-40.534-38.4-106.667-38.4-145.067 0z m98.133 93.866L678.4 925.867c-12.8 12.8-34.133 12.8-46.933 0-12.8-12.8-12.8-34.134 0-46.934L857.6 652.8c12.8-12.8 34.133-12.8 46.933 0 12.8 12.8 12.8 34.133 0 46.933z" p-id="6703"></path></svg>