<?xml version="1.0" standalone="no"?><!DOCTYPE svg PUBLIC "-//W3C//DTD SVG 1.1//EN" "http://www.w3.org/Graphics/SVG/1.1/DTD/svg11.dtd"><svg t="1595823020457" class="icon" viewBox="0 0 1024 1024" version="1.1" xmlns="http://www.w3.org/2000/svg" p-id="10880" xmlns:xlink="http://www.w3.org/1999/xlink" width="200" height="200"><defs><style type="text/css"></style></defs><path d="M515.326157 1023.996314C233.215172 1023.996314 3.328 794.109141 3.328 511.998157S233.215172 0 515.326157 0c21.503923 0 39.423858 17.407937 39.423858 39.423858s-17.407937 39.423858-39.423858 39.423858c-239.103139 0-433.150441 194.047301-433.150441 433.150441 0 238.591141 194.5593 433.150441 433.150441 433.15044 113.663591 0 221.183204-44.031841 302.59091-123.391555 44.54384-43.519843 79.359714-96.255653 101.887634-154.111446 7.679972-20.479926 30.719889-30.719889 50.687817-22.527918 20.479926 7.679972 30.719889 30.719889 22.527919 50.687817-26.623904 68.607753-67.583757 131.071528-120.319567 182.271344-95.231657 93.695663-223.743195 146.431473-357.374713 145.919475M923.388688 130.047532c-53.759806 0-97.27965 43.519843-97.27965 97.27965s43.519843 97.27965 97.27965 97.279649 97.27965-43.519843 97.27965-97.279649-43.519843-97.27965-97.27965-97.27965m0 164.351408c-37.375865 0-67.071759-30.207891-67.071759-67.071758 0-37.375865 30.207891-67.071759 67.071759-67.071759 37.375865 0 67.071759 30.207891 67.071758 67.071759 0.511998 36.863867-29.695893 67.071759-67.071758 67.071758m-8.191971-50.687817c-5.119982 0-9.215967-4.095985-9.215967-9.215967V169.983388c0-5.119982 4.095985-9.215967 9.215967-9.215967s9.215967 4.095985 9.215967 9.215967V225.279189h39.423858c5.119982 0 9.215967 4.095985 9.215967 9.215967s-4.095985 9.215967-9.215967 9.215967h-48.639825z" p-id="10881"></path><path d="M526.078118 381.438627l-83.455699-92.159668c-11.775958-12.799954-19.45593-22.527919-24.063914-28.671897-9.215967-8.703969-21.503923-16.383941-36.351869-22.015921-14.847947-5.63198-27.6479-2.047993-38.399862 10.751961-9.215967 13.82395-11.775958 27.6479-7.167974 41.471851 4.607983 13.311952 9.727965 24.063913 15.871943 31.743886l26.111906 27.135902c12.799954 15.359945 26.623904 31.743886 41.471851 50.175819 17.407937 20.479926 36.351869 42.495847 57.343793 65.535765l-1.535994 40.447854h-117.759576c-10.239963 0-19.45593 4.607983-26.623904 13.311952-7.679972 8.703969-11.263959 18.431934-11.26396 28.671897s3.583987 19.45593 10.239963 27.135902c7.167974 7.679972 16.383941 11.775958 27.647901 11.775958h117.759576v67.071758h-117.759576c-10.239963 0-19.45593 3.583987-26.623904 10.751962-7.679972 7.167974-11.263959 16.383941-11.26396 27.6479-1.023996 10.239963 2.047993 18.943932 9.727965 26.111906 7.679972 7.167974 16.895939 10.751961 28.671897 10.751961h117.759576v38.399862c1.023996 17.919935 6.143978 30.207891 15.871943 37.375866 9.215967 7.167974 20.991924 10.751961 34.815874 10.751961 13.82395 1.535994 25.08791-3.583987 33.791879-14.335949 8.703969-10.751961 12.799954-22.015921 12.799954-33.791878v-38.399862H694.525512c11.775958 0 20.991924-3.071989 28.671896-8.703968s10.751961-14.847947 9.727965-27.647901c0-26.623904-16.383941-40.447854-48.639824-40.447854h-111.1036l1.535994-65.535764 112.639594-2.047993c16.383941 1.023996 27.6479-2.047993 34.815875-10.751961 7.167974-8.191971 10.239963-18.431934 10.239963-29.695893 0-10.239963-3.583987-19.45593-11.263959-27.647901-7.679972-8.191971-19.45593-12.287956-35.327873-12.287956h-112.639594V465.918323c19.45593-20.479926 37.375865-40.447854 53.759806-59.391786 13.82395-15.359945 27.6479-31.231888 41.471851-47.103831 13.82395-15.871943 24.063913-27.135902 31.231887-33.791878 26.623904-25.599908 32.255884-48.127827 17.407938-67.071759-8.191971-11.775958-18.431934-17.407937-31.231888-17.407937-12.799954 0-24.063913 5.119982-34.815875 15.359945-5.63198 5.119982-15.871943 14.335948-29.695893 27.6479-13.82395 13.311952-27.6479 27.135902-41.47185 41.471851-15.871943 16.895939-33.791878 35.327873-53.759807 55.807799" p-id="10882"></path></svg>