<?xml version="1.0" standalone="no"?><!DOCTYPE svg PUBLIC "-//W3C//DTD SVG 1.1//EN" "http://www.w3.org/Graphics/SVG/1.1/DTD/svg11.dtd"><svg t="1595823153636" class="icon" viewBox="0 0 1109 1024" version="1.1" xmlns="http://www.w3.org/2000/svg" p-id="11618" xmlns:xlink="http://www.w3.org/1999/xlink" width="216.6015625" height="200"><defs><style type="text/css"></style></defs><path d="M752.873676 321.129833a38.53728 38.53728 0 0 0-54.539914 0l-101.557632 101.493749-101.525691-101.525691a38.585193 38.585193 0 1 0-54.571856 54.555885l62.924528 62.940498h-61.391341a7.474284 7.474284 0 0 0-7.474284 7.474284v62.2857a7.474284 7.474284 0 0 0 7.474284 7.474284h115.995138v51.649219h-115.995138a7.474284 7.474284 0 0 0-7.474284 7.474284v62.2857a7.474284 7.474284 0 0 0 7.474284 7.474284h115.995138v116.011109a38.585193 38.585193 0 0 0 77.154414 0v-116.106933h116.011109a7.474284 7.474284 0 0 0 7.458313-7.474284v-62.2857a7.474284 7.474284 0 0 0-7.458313-7.474284h-116.011109v-51.569365h116.011109a7.474284 7.474284 0 0 0 7.458313-7.474284v-62.2857a7.458313 7.458313 0 0 0-7.458313-7.458314h-61.439253l62.956469-62.956469a38.633105 38.633105 0 0 0-0.015971-54.507972z m315.756557-8.336702A512.052336 512.052336 0 0 0 99.656391 389.979487l-25.553108-57.414639a38.585193 38.585193 0 1 0-70.510606 31.334499l79.13478 178.025306c0.399267 0.9263 0.846447 1.868571 1.357509 2.826813l0.175678 0.319414c0.46315 0.830476 0.894359 1.597069 1.357509 2.31575l0.127765 0.191649c0.383297 0.574945 0.798535 1.181831 1.245714 1.788717 0.159707 0.23956 0.367326 0.511062 0.590916 0.798535s0.590916 0.750623 0.894358 1.101977 0.894359 1.054066 1.357509 1.59707l0.127766 0.143736 0.70271 0.750622 0.766593 0.734652 0.095825 0.111795 0.990183 0.91033 0.814505 0.70271c0.447179 0.367326 0.942271 0.766593 1.453333 1.14989a2.938607 2.938607 0 0 0 0.399267 0.303443c0.670769 0.511062 1.37348 0.990183 2.140073 1.485274l0.143736 0.095825c0.68674 0.431209 1.405421 0.846447 2.140073 1.245714l0.23956 0.143736a38.473398 38.473398 0 0 0 4.791208 2.187985h0.127766c0.70271 0.255531 1.437362 0.495091 2.235896 0.734651h0.44718l2.07619 0.543004 0.319414 0.079853h0.143736c0.718681 0.159707 1.501245 0.287472 2.283809 0.415238l0.814505 0.095825h0.143736l1.389451 0.159707h0.175677l0.974213 0.079853h2.299779c1.022124 0 2.07619 0 3.194139-0.143736h0.207619c1.054066-0.095824 2.108131-0.23956 3.194138-0.415238h0.46315c1.054066-0.207619 2.012307-0.415238 2.922637-0.654799 0.143736 0 0.303443-0.079853 0.447179-0.143736 0.750623-0.207619 1.597069-0.46315 2.29978-0.734652h0.143736l0.702711-0.255531q1.038095-0.383297 2.012307-0.814505h0.095824l0.319414-0.159707 0.878388-0.415238c0.9263-0.447179 1.724835-0.878388 2.491428-1.325567l0.351355-0.207619h0.095824a38.98446 38.98446 0 0 0 5.813332-4.280146l146.563043-128.388395a38.58679 38.58679 0 0 0-50.850684-58.053467l-69.584306 60.960133C208.75219 227.477693 388.741892 77.289303 596.808071 77.289303c239.736062 0 434.770156 195.034094 434.770156 434.786127S836.671898 946.829615 596.935837 946.829615a434.86598 434.86598 0 0 1-282.856931-104.560122 38.585193 38.585193 0 1 0-50.163945 58.580499 512.068307 512.068307 0 0 0 804.763184-588.056861z" p-id="11619"></path></svg>