<?xml version="1.0" standalone="no"?><!DOCTYPE svg PUBLIC "-//W3C//DTD SVG 1.1//EN" "http://www.w3.org/Graphics/SVG/1.1/DTD/svg11.dtd"><svg t="1595831577448" class="icon" viewBox="0 0 1024 1024" version="1.1" xmlns="http://www.w3.org/2000/svg" p-id="22258" xmlns:xlink="http://www.w3.org/1999/xlink" width="200" height="200"><defs><style type="text/css"></style></defs><path d="M818.176 468.48c-17.408 0-31.744-14.336-31.744-31.744V135.68c0-4.608-3.584-7.68-7.68-7.68H134.656c-4.608 0-7.68 3.584-7.68 7.68V880.64c0 4.608 3.584 7.68 7.68 7.68h286.208c17.408 0 31.744 14.336 31.744 31.744s-14.336 31.744-31.744 31.744H95.232c-17.408 0-31.744-14.336-31.744-31.744V96.256c0-17.408 14.336-31.744 31.744-31.744h722.944c17.408 0 31.744 14.336 31.744 31.744v340.48c0 17.408-14.336 31.744-31.744 31.744z m-609.28-200.192h466.432c17.408 0 31.744 14.336 31.744 31.744s-14.336 31.744-31.744 31.744H208.896c-17.408 0-31.744-14.336-31.744-31.744s14.336-31.744 31.744-31.744z m5.12 204.288h209.92c17.408 0 31.744 14.336 31.744 31.744 0 17.408-14.336 31.744-31.744 31.744h-209.92c-17.408 0-31.744-14.336-31.744-31.744 0-17.92 14.336-31.744 31.744-31.744z m0 203.776h209.92c17.408 0 31.744 14.336 31.744 31.744 0 17.408-14.336 31.744-31.744 31.744h-209.92c-17.408 0-31.744-14.336-31.744-31.744 0-17.408 14.336-31.744 31.744-31.744z m301.056-203.776h43.52c17.408 0 31.744 14.336 31.744 31.744 0 17.408-14.336 31.744-31.744 31.744h-43.52c-17.408 0-31.744-14.336-31.744-31.744 0-17.92 14.336-31.744 31.744-31.744z" p-id="22259"></path><path d="M535.552 798.208l64-76.288h-40.448c6.144-90.112 80.896-161.792 171.008-161.792 93.696 0 171.008 78.336 171.008 174.592s-77.312 174.592-171.008 174.592c-34.304 0-67.584-10.752-96.256-30.72-10.752-8.192-27.136-4.608-34.304 6.144-8.192 10.752-4.608 27.136 6.144 34.304 36.864 26.112 79.872 39.424 124.928 39.424 121.344 0 221.184-100.864 221.184-223.232 0-123.392-98.816-223.232-221.184-223.232-115.2 0-211.456 98.816-222.208 211.456H476.16l59.392 74.752z m268.8-151.552c3.584-8.192 1.024-15.36-8.192-21.504-9.728-4.608-16.384-3.584-22.528 6.144l-45.056 71.168-46.592-71.168c-6.144-8.192-13.312-10.752-21.504-7.168-8.192 3.584-11.776 11.776-8.192 22.528l46.592 70.144H660.48c-3.584 3.584-6.144 7.168-6.144 11.776 0 4.608 2.56 9.728 6.144 11.776h49.664v19.968H660.48c-3.584 3.584-6.144 7.168-6.144 11.776s2.56 9.728 6.144 11.776h49.664v51.2c-1.024 14.336 4.608 22.528 17.92 22.528s19.968-7.168 18.944-22.528v-51.2h49.664c4.608-2.56 7.168-7.168 7.168-11.776 0-6.144-2.56-9.728-7.168-11.776H747.52v-19.968h48.64c4.608-3.584 7.168-7.168 7.168-11.776s-2.56-9.728-7.168-11.776h-37.888l46.08-70.144z" p-id="22260"></path></svg>